<?xml version="1.0" encoding="iso-8859-1"?>
<!-- Uploaded to: SVG Repo, www.svgrepo.com, Generator: SVG Repo Mixer Tools -->
<svg fill="#000000" height="800px" width="800px" version="1.1" id="Layer_1" xmlns="http://www.w3.org/2000/svg" xmlns:xlink="http://www.w3.org/1999/xlink" 
	 viewBox="0 0 512 512" xml:space="preserve">
<g>
	<g>
		<g>
			<path d="M290.304,341.333c-4.71,0-8.491,3.823-8.491,8.533s3.866,8.533,8.576,8.533c4.719,0,8.533-3.823,8.533-8.533
				s-3.814-8.533-8.533-8.533H290.304z"/>
			<path d="M315.733,238.933c-4.668,0-8.414,3.755-8.474,8.422c-0.06,4.676,3.703,8.525,8.371,8.644
				c3.942,0.102,8.636,1.664,8.636,8.533v8.533c0,3.268,0.401,27.332,11.827,41.967c-11.665,11.145-11.827,25.557-11.827,26.3v25.6
				c0,6.861-4.685,8.431-8.619,8.533c-4.676,0.043-8.448,3.849-8.448,8.533c0,4.71,3.823,8.533,8.533,8.533
				c10.291,0,25.6-6.818,25.6-25.6v-25.6c0-0.12,0.145-11.861,12.348-17.963c2.893-1.451,4.719-4.403,4.719-7.637
				s-1.826-6.187-4.719-7.637c-9.267-4.625-12.322-25.609-12.348-35.029v-8.533C341.333,245.751,326.025,238.933,315.733,238.933z"
				/>
			<path d="M469.333,119.467H384c-14.114,0-25.6-11.486-25.6-25.6V51.2c0-4.71-3.823-8.533-8.533-8.533
				c-4.71,0-8.533,3.823-8.533,8.533v42.667c0,23.526,19.14,42.667,42.667,42.667h76.8v332.8c0,14.114-11.486,25.6-25.6,25.6H76.8
				c-14.114,0-25.6-11.486-25.6-25.6V42.667c0-14.114,11.486-25.6,25.6-25.6h269.534L429.167,99.9c3.337,3.337,8.73,3.337,12.066,0
				c3.336-3.336,3.336-8.73,0-12.066L355.9,2.5c-1.596-1.604-3.772-2.5-6.033-2.5H76.8C53.274,0,34.133,19.14,34.133,42.667v426.667
				C34.133,492.86,53.274,512,76.8,512h358.4c23.526,0,42.667-19.14,42.667-42.667V128
				C477.867,123.29,474.044,119.467,469.333,119.467z"/>
			<path d="M196.352,256c4.676-0.043,8.448-3.849,8.448-8.533c0-4.71-3.823-8.533-8.533-8.533c-10.291,0-25.6,6.818-25.6,25.6
				l2.739,2.27c-1.681,1.553-2.739,3.78-2.739,6.263c0,9.421-3.021,30.37-12.348,35.029c-2.893,1.451-4.719,4.403-4.719,7.637
				s1.826,6.187,4.719,7.637c11.921,5.956,12.339,17.57,12.348,17.963v25.6c0,18.782,15.309,25.6,25.6,25.6
				c4.668,0,8.414-3.755,8.474-8.422c0.06-4.676-3.703-8.525-8.371-8.644c-3.942-0.102-8.636-1.664-8.636-8.533v-25.6
				c0-0.742-0.162-15.155-11.827-26.3c8.73-11.179,11.025-27.853,11.622-36.565l0.205,0.171v-5.572c0-2.483-1.058-4.71-2.739-6.263
				l2.739-2.27C187.733,257.673,192.418,256.102,196.352,256z"/>
			<path d="M256.171,341.333c-4.71,0-8.491,3.823-8.491,8.533s3.866,8.533,8.576,8.533c4.71,0,8.533-3.823,8.533-8.533
				s-3.823-8.533-8.533-8.533H256.171z"/>
			<path d="M222.037,341.333c-4.71,0-8.491,3.823-8.491,8.533s3.866,8.533,8.576,8.533s8.533-3.823,8.533-8.533
				s-3.823-8.533-8.533-8.533H222.037z"/>
		</g>
	</g>
</g>
</svg>